<?xml version="1.0" encoding="UTF-8"?><svg id="Artwork" xmlns="http://www.w3.org/2000/svg" width="5090" height="422" viewBox="0 0 5090 422"><g id="International_Wordmark"><g id="Wordmark"><path d="m0,11.001h77.714v399.999H0V11.001Z" fill="#fff" stroke-width="0"/><path d="m179.995,11.001h81.714l211.428,211.428V11.001h77.714v399.999h-77.714v-81.143l-215.428-215.428v296.57h-77.714V11.001Z" fill="#fff" stroke-width="0"/><path d="m766.848,84.144h-147.428V11.001h372.57v73.143h-147.428v326.856h-77.715V84.144Z" fill="#fff" stroke-width="0"/><path d="m1060.566,11.001h313.142v73.143h-235.428v86.286h187.428v72h-187.428v95.428h242.284v73.143h-319.998V11.001Z" fill="#fff" stroke-width="0"/><path d="m1465.706,11.001h230.284c76.571,0,132.571,53.714,132.571,125.714,0,54.857-32,98.857-81.143,116.571l87.428,157.714h-89.714l-81.143-148.571h-120.57v148.571h-77.714V11.001Zm226.855,178.285c30.286,0,53.715-21.143,53.715-52.571s-23.429-52.571-53.715-52.571h-149.142v105.143h149.142Z" fill="#fff" stroke-width="0"/><path d="m1918.273,11.001h81.714l211.428,211.428V11.001h77.714v399.999h-77.714v-81.143l-215.428-215.428v296.57h-77.714V11.001Z" fill="#fff" stroke-width="0"/><path d="m2366.27,336.714L2531.984,11.001h80l165.714,325.713v74.286h-80v-52.571l-20.571-42.857h-210.285l-20.571,42.857v52.571h-80v-74.286Zm275.999-94.285l-70.285-146.856-70.285,146.856h140.57Z" fill="#fff" stroke-width="0"/><path d="m2911.984,84.144h-147.428V11.001h372.57v73.143h-147.429v326.856h-77.714V84.144Z" fill="#fff" stroke-width="0"/><path d="m3205.703,11.001h77.714v399.999h-77.714V11.001Z" fill="#fff" stroke-width="0"/><path d="m3358.839,208.144c0-125.142,99.428-206.285,209.713-206.285s209.714,81.143,209.714,206.285-99.429,211.999-209.714,211.999-209.713-86.856-209.713-211.999Zm209.713,135.428c71.429,0,128-58.286,128-135.428s-56.571-129.714-128-129.714-127.999,52.571-127.999,129.714,56.571,135.428,127.999,135.428Z" fill="#fff" stroke-width="0"/><path d="m3853.694,11.001h81.714l211.428,211.428V11.001h77.714v399.999h-77.714v-81.143l-215.428-215.428v296.57h-77.714V11.001Z" fill="#fff" stroke-width="0"/><path d="m4301.69,336.714l165.714-325.713h80l165.714,325.713v74.286h-80v-52.571l-20.571-42.857h-210.285l-20.571,42.857v52.571h-80v-74.286Zm275.999-94.285l-70.285-146.856-70.285,146.856h140.57Z" fill="#fff" stroke-width="0"/><path d="m4790.263,11.001h77.714v326.856h220.57v73.143h-298.284V11.001Z" fill="#fff" stroke-width="0"/></g></g></svg>