<?xml version="1.0" encoding="UTF-8"?><svg id="Outlined" xmlns="http://www.w3.org/2000/svg" width="32" height="32" viewBox="0 0 32 32"><path d="M29.708,7.708l-.708-.708-1-1H4l-1,1-.708.708-.292.292v16l.293.293,1.414,1.414.293.293h24l.293-.293,1.414-1.414.293-.293V8l-.292-.292ZM26.727,8l-9.166,10h-3.121L5.273,8h21.453ZM4,9.571l6.225,6.79-6.225,6.225v-13.015ZM5.414,24l6.163-6.163,1.983,2.163h4.879l1.983-2.163,6.163,6.163H5.414ZM21.775,16.361l6.225-6.79v13.015l-6.225-6.225Z" fill="#fff" stroke-width="0"/></svg>