<?xml version="1.0" encoding="UTF-8"?><svg id="Outlined" xmlns="http://www.w3.org/2000/svg" width="32" height="32" viewBox="0 0 32 32"><path d="M16,2c-7.72,0-14,6.28-14,14s6.28,14,14,14,14-6.28,14-14S23.72,2,16,2ZM26.376,10h-4.336c-.705-2.119-1.798-4.029-3.188-5.643,3.207.786,5.907,2.858,7.524,5.643ZM21,16c0,1.379-.178,2.717-.484,4h-9.031c-.306-1.283-.484-2.621-.484-4s.178-2.717.484-4h9.031c.306,1.283.484,2.621.484,4ZM16,27.715c-1.725-1.485-3.044-3.465-3.9-5.715h7.8c-.856,2.25-2.175,4.23-3.9,5.715ZM12.1,10c.856-2.25,2.175-4.23,3.9-5.715,1.725,1.485,3.044,3.465,3.9,5.715h-7.8ZM13.148,4.357c-1.39,1.614-2.484,3.524-3.188,5.643h-4.336c1.617-2.785,4.317-4.857,7.524-5.643ZM4.7,12h4.721c-.274,1.291-.421,2.631-.421,4s.147,2.709.421,4h-4.721c-.445-1.253-.7-2.596-.7-4s.255-2.747.7-4ZM5.624,22h4.336c.705,2.119,1.798,4.029,3.188,5.643-3.207-.786-5.907-2.858-7.524-5.643ZM18.852,27.643c1.39-1.614,2.484-3.524,3.188-5.643h4.336c-1.617,2.785-4.317,4.857-7.524,5.643ZM27.3,20h-4.721c.274-1.291.421-2.631.421-4s-.147-2.709-.421-4h4.721c.445,1.253.7,2.596.7,4s-.255,2.747-.7,4Z" fill="#fff" stroke-width="0"/></svg>