<?xml version="1.0" encoding="UTF-8"?><svg id="Outlined" xmlns="http://www.w3.org/2000/svg" width="32" height="32" viewBox="0 0 32 32"><polygon points="4 21 2 23 2 27 4 27 4 23 16 23 16 27 18 27 18 23 16 21 4 21" fill="#fff" stroke-width="0"/><path d="M10,20c2.757,0,5-2.243,5-5s-2.243-5-5-5-5,2.243-5,5,2.243,5,5,5ZM10,12c1.654,0,3,1.346,3,3s-1.346,3-3,3-3-1.346-3-3,1.346-3,3-3Z" fill="#fff" stroke-width="0"/><polygon points="28 16 17 16 17 18 28 18 28 22 30 22 30 18 28 16" fill="#fff" stroke-width="0"/><path d="M22,15c2.757,0,5-2.243,5-5s-2.243-5-5-5-5,2.243-5,5,2.243,5,5,5ZM22,7c1.654,0,3,1.346,3,3s-1.346,3-3,3-3-1.346-3-3,1.346-3,3-3Z" fill="#fff" stroke-width="0"/></svg>