<?xml version="1.0" encoding="UTF-8"?><svg id="Outlined" xmlns="http://www.w3.org/2000/svg" width="32" height="32" viewBox="0 0 32 32"><path d="M16,7c-5.081,0-9.855,1.979-13.444,5.575l1.415,1.412c3.211-3.216,7.483-4.987,12.029-4.987s8.818,1.771,12.029,4.987l1.415-1.412c-3.588-3.596-8.363-5.575-13.444-5.575Z" fill="#fff" stroke-width="0"/><path d="M6.095,16.107l1.416,1.412c2.265-2.27,5.28-3.52,8.489-3.52s6.224,1.25,8.489,3.52l1.416-1.412c-2.644-2.648-6.161-4.107-9.905-4.107s-7.262,1.459-9.905,4.107Z" fill="#fff" stroke-width="0"/><path d="M9.634,19.64l1.416,1.412c1.32-1.323,3.079-2.052,4.95-2.052s3.63.729,4.95,2.052l1.416-1.412c-1.699-1.702-3.959-2.64-6.366-2.64s-4.667.938-6.366,2.64Z" fill="#fff" stroke-width="0"/><path d="M13.172,23.172l2.828,2.828,2.828-2.828c-.724-.724-1.724-1.172-2.828-1.172s-2.105.448-2.828,1.172Z" fill="#fff" stroke-width="0"/></svg>