<?xml version="1.0" encoding="UTF-8"?><svg id="Outlined" xmlns="http://www.w3.org/2000/svg" width="32" height="32" viewBox="0 0 32 32"><path d="M24.8,6.419c-.351-.469-.685-.86-1.022-1.197-2.078-2.077-4.84-3.222-7.778-3.222s-5.701,1.145-7.779,3.222c-.337.338-.671.729-1.021,1.197-1.439,1.921-2.2,4.196-2.2,6.581,0,2.271.69,4.444,2,6.306l7.479,10.694h3.041l7.299-10.427.106-.163c1.358-1.884,2.074-4.096,2.074-6.41,0-2.385-.761-4.66-2.2-6.581ZM23.2,18.382l-6.72,9.618h-.959l-6.521-9.315-.2-.303c-1.178-1.572-1.8-3.433-1.8-5.382s.623-3.81,1.8-5.382c.293-.392.567-.713.835-.982,1.7-1.699,3.96-2.636,6.364-2.636s4.664.937,6.364,2.636c.269.27.542.591.836.982,1.178,1.572,1.8,3.433,1.8,5.382s-.623,3.81-1.8,5.382Z" fill="#fff" stroke-width="0"/><circle cx="16" cy="13" r="3" fill="#fff" stroke-width="0"/></svg>