<?xml version="1.0" encoding="UTF-8"?><svg id="Outlined" xmlns="http://www.w3.org/2000/svg" width="32" height="32" viewBox="0 0 32 32"><path d="M25,18.586v-5.01c-.614.269-1.288.424-2,.424v5.414l2,2v2.586H7v-2.586l2-2v-6.414c0-3.859,3.141-7,7-7,.948,0,1.852.191,2.677.534.35-.611.816-1.142,1.381-1.557-.938-.477-1.967-.797-3.058-.919v-2.059h-2v2.059c-4.493.499-8,4.317-8,8.941v5.586l-2,2v5.414h7c0,2.206,1.794,4,4,4s4-1.794,4-4h7v-5.414l-2-2ZM16,28c-1.103,0-2-.897-2-2h4c0,1.103-.897,2-2,2Z" fill="#fff" stroke-width="0"/><path d="M22.919,11.992c.028,0,.053.008.081.008.697,0,1.332-.249,1.842-.65.7-.55,1.158-1.394,1.158-2.35,0-1.654-1.346-3-3-3-.39,0-.761.08-1.104.217-.646.257-1.174.735-1.509,1.338-.24.431-.388.919-.388,1.446,0,1.626,1.303,2.948,2.919,2.992Z" fill="#fff" stroke-width="0"/></svg>