<?xml version="1.0" encoding="UTF-8"?><svg id="Outlined" xmlns="http://www.w3.org/2000/svg" width="32" height="32" viewBox="0 0 32 32"><path d="M29,18.72v-5.44l-2.61-.87c-.14-.42-.31-.83-.5-1.22l1.22-2.46-3.85-3.84-2.45,1.22c-.39-.19-.8-.36-1.22-.5l-.87-2.61h-5.44l-.87,2.61c-.42.14-.84.31-1.23.5l-2.45-1.22-3.85,3.84,1.23,2.46c-.19.39-.36.8-.51,1.22l-2.6.87v5.44l2.6.87c.15.42.32.83.51,1.23l-1.23,2.45,3.85,3.85,2.45-1.23c.39.19.81.36,1.23.51l.87,2.6h5.44l.87-2.61c.42-.14.83-.31,1.22-.5l2.45,1.23,3.85-3.85-1.22-2.45c.19-.4.36-.81.5-1.23l2.61-.87ZM20.32,23.89c-.55.31-1.16.56-1.8.75l-.5.14-.74,2.22h-2.56l-.74-2.22-.51-.14c-.64-.19-1.24-.44-1.8-.75l-.46-.25-2.09,1.04-1.81-1.81,1.05-2.08-.25-.46c-.31-.56-.56-1.17-.75-1.81l-.14-.5-2.22-.74v-2.56l2.22-.74.14-.5c.19-.64.44-1.25.75-1.81l.25-.45-1.05-2.09,1.81-1.81,2.09,1.04.46-.25c.56-.31,1.17-.56,1.81-.74l.5-.15.74-2.22h2.56l.74,2.22.5.15c.64.18,1.25.43,1.8.74l.46.25,2.09-1.04,1.81,1.81-1.04,2.09.25.46c.31.55.56,1.16.74,1.8l.15.5,2.22.74v2.56l-2.22.74-.15.5c-.18.64-.43,1.25-.74,1.81l-.25.46,1.04,2.08-1.81,1.81-2.09-1.04-.46.25Z" fill="#fff" stroke-width="0"/><path d="M16,11c-2.76,0-5,2.24-5,5s2.24,5,5,5,5-2.24,5-5-2.25-5-5-5ZM16,19c-1.66,0-3-1.34-3-3,0-1.65,1.34-3,3-3,1.65,0,3,1.35,3,3,0,1.66-1.35,3-3,3Z" fill="#fff" stroke-width="0"/></svg>