<?xml version="1.0" encoding="UTF-8"?><svg id="Outlined" xmlns="http://www.w3.org/2000/svg" width="32" height="32" viewBox="0 0 32 32"><path d="M20,28H4V4h8v8h10v-2.414l-7.586-7.586H4l-2,2v24l2,2h16l2-2v-4h-2v4ZM19.586,10h-5.586v-5.586l5.586,5.586Z" fill="#fff" stroke-width="0"/><path d="M11.683,15.004v6.996h1.399v-2.459h1.85c1.398,0,2.299-.869,2.299-2.269s-.9-2.269-2.299-2.269h-3.249ZM15.771,17.272c0,.66-.409.989-.939.989h-1.749v-1.979h1.749c.53,0,.939.33.939.989Z" fill="#fff" stroke-width="0"/><path d="M21.592,15.004h-3.249v6.996h1.399v-2.459h1.85c1.398,0,2.299-.869,2.299-2.269s-.9-2.269-2.299-2.269ZM21.491,18.262h-1.749v-1.979h1.749c.53,0,.939.33.939.989s-.409.989-.939.989Z" fill="#fff" stroke-width="0"/><polygon points="24.402 15.004 24.402 16.283 26.502 16.283 26.502 22 27.9 22 27.9 16.283 30 16.283 30 15.004 24.402 15.004" fill="#fff" stroke-width="0"/></svg>