<?xml version="1.0" encoding="UTF-8"?><svg id="Outlined" xmlns="http://www.w3.org/2000/svg" width="32" height="32" viewBox="0 0 32 32"><polygon points="13.773 20 13.773 13.004 12.374 13.004 10.555 14.463 11.374 15.433 12.374 14.643 12.374 20 13.773 20" fill="#fff" stroke-width="0"/><path d="M18.192,20.13c1.829,0,2.969-1.429,2.969-3.628s-1.14-3.618-2.969-3.618-2.958,1.419-2.958,3.618,1.129,3.628,2.958,3.628ZM18.192,14.184c.989,0,1.509.929,1.509,2.318s-.52,2.329-1.509,2.329-1.499-.939-1.499-2.329.51-2.318,1.499-2.318Z" fill="#fff" stroke-width="0"/><path d="M27.121,11.485c-.604-1.49-1.491-2.826-2.636-3.97-1.146-1.146-2.482-2.033-3.97-2.636-2.877-1.166-6.154-1.166-9.031,0-1.286.521-2.449,1.267-3.484,2.196v-3.075h-2v7h7v-2h-4.1l.092-.134c.942-.925,2.033-1.643,3.244-2.133,2.396-.972,5.131-.972,7.527,0,1.239.502,2.352,1.241,3.308,2.196.954.954,1.693,2.067,2.196,3.308.486,1.198.732,2.464.732,3.763s-.246,2.565-.732,3.763c-.503,1.241-1.242,2.354-2.196,3.308-.956.956-2.068,1.694-3.308,2.196-2.396.972-5.131.972-7.527,0-1.239-.502-2.352-1.241-3.308-2.196l-1.414,1.414c1.146,1.146,2.482,2.033,3.97,2.636,1.438.583,2.957.879,4.516.879s3.077-.296,4.516-.879c1.487-.603,2.823-1.49,3.97-2.636,1.145-1.145,2.031-2.48,2.636-3.97.583-1.438.879-2.957.879-4.515s-.296-3.077-.879-4.515Z" fill="#fff" stroke-width="0"/></svg>