<?xml version="1.0" encoding="UTF-8"?><svg id="Outlined" xmlns="http://www.w3.org/2000/svg" width="32" height="32" viewBox="0 0 32 32"><path d="M20,28H4V4h8v8h10v-2.414l-7.586-7.586H4l-2,2v24l2,2h16l2-2v-4h-2v4ZM19.586,10h-5.586v-5.586l5.586,5.586Z" fill="#fff" stroke-width="0"/><polygon points="12.832 22 14.582 19.441 16.351 22 18.029 22 15.401 18.352 17.92 15.004 16.181 15.004 14.592 17.282 13.022 15.004 11.304 15.004 13.742 18.362 11.163 22 12.832 22" fill="#fff" stroke-width="0"/><polygon points="20.362 15.004 18.963 15.004 18.963 22 23.761 22 23.761 20.721 20.362 20.721 20.362 15.004" fill="#fff" stroke-width="0"/><path d="M28.211,18.002l-1.199-.38c-.54-.17-.84-.35-.84-.72,0-.409.47-.719,1.239-.719.55,0,1,.159,1.5.6l.919-.92c-.749-.699-1.599-.979-2.419-.979-1.559,0-2.688.81-2.688,2.099,0,1.01.61,1.6,1.609,1.909l1.399.439c.439.141.81.36.81.74,0,.46-.47.749-1.27.749-.67,0-1.349-.3-1.959-.799l-.909.909c.8.789,1.839,1.189,2.908,1.189,1.56,0,2.688-.85,2.688-2.129,0-.96-.579-1.609-1.789-1.989Z" fill="#fff" stroke-width="0"/></svg>