<?xml version="1.0" encoding="UTF-8"?><svg id="Outlined" xmlns="http://www.w3.org/2000/svg" width="32" height="32" viewBox="0 0 32 32"><path d="M8.586,10h-4.586l-2,2v8l2,2h4.586l8,8h3.414V2h-3.414l-8,8ZM18,4v24h-.586l-8-8h-5.414v-8h5.414l8-8h.586Z" fill="#fff" stroke-width="0"/><path d="M25.899,6.101l-1.414,1.414c2.267,2.267,3.515,5.28,3.515,8.485s-1.248,6.219-3.515,8.485l1.414,1.414c2.645-2.644,4.101-6.16,4.101-9.899s-1.456-7.255-4.101-9.899Z" fill="#fff" stroke-width="0"/><path d="M23.075,8.929l-1.414,1.414c3.119,3.119,3.119,8.194,0,11.313l1.414,1.414c3.899-3.899,3.899-10.243,0-14.142Z" fill="#fff" stroke-width="0"/></svg>