<?xml version="1.0" encoding="UTF-8"?><svg id="Outlined" xmlns="http://www.w3.org/2000/svg" width="32" height="32" viewBox="0 0 32 32"><path d="M20,28H4V4h8v8h10v-2.414l-7.586-7.586H4l-2,2v24l2,2h16l2-2v-4h-2v4ZM19.586,10h-5.586v-5.586l5.586,5.586Z" fill="#fff" stroke-width="0"/><path d="M11.283,15.004v6.996h1.399v-2.459h1.85c1.398,0,2.299-.869,2.299-2.269s-.9-2.269-2.299-2.269h-3.249ZM15.371,17.272c0,.66-.409.989-.939.989h-1.749v-1.979h1.749c.53,0,.939.33.939.989Z" fill="#fff" stroke-width="0"/><path d="M20.603,15.004h-2.659v6.996h2.659c1.919,0,3.238-1.35,3.238-3.498s-1.319-3.498-3.238-3.498ZM20.553,20.721h-1.21v-4.438h1.21c1.119,0,1.829.949,1.829,2.219s-.71,2.219-1.829,2.219Z" fill="#fff" stroke-width="0"/><polygon points="30 16.283 30 15.004 25.103 15.004 25.103 22 26.502 22 26.502 19.222 29.501 19.222 29.501 17.962 26.502 17.962 26.502 16.283 30 16.283" fill="#fff" stroke-width="0"/></svg>