<?xml version="1.0" encoding="UTF-8"?><svg id="Outlined" xmlns="http://www.w3.org/2000/svg" width="32" height="32" viewBox="0 0 32 32"><path d="M20.46,15.046c.343-.953.54-1.975.54-3.046,0-4.971-4.029-9-9-9-1.071,0-2.093.197-3.046.54-.67.241-1.304.554-1.89.939l1.454,1.454,4.481,4.481v2.586h-2.586l-4.481-4.481-1.454-1.454c-.385.585-.697,1.22-.939,1.89-.343.953-.54,1.975-.54,3.046,0,4.971,4.029,9,9,9,1.071,0,2.093-.197,3.046-.54l8.54,8.54h2.828l2.586-2.586v-2.828l-8.54-8.54ZM25,27.586l-8.064-8.064-1.454-1.454c-.628.361-1.314.631-2.044.784-.464.097-.944.149-1.437.149-3.866,0-7-3.134-7-7,0-.493.052-.973.149-1.437l4.437,4.437h5.414v-5.414l-4.437-4.437c.464-.097.944-.149,1.437-.149,3.866,0,7,3.134,7,7,0,.493-.052.973-.149,1.437-.152.731-.423,1.417-.784,2.044l1.454,1.454,8.064,8.064-2.586,2.586Z" fill="#fff" stroke-width="0"/></svg>