<?xml version="1.0" encoding="UTF-8"?><svg id="Outlined" xmlns="http://www.w3.org/2000/svg" width="32" height="32" viewBox="0 0 32 32"><path d="M29,10h-2v3.219l-1.79.448-.718-10.661-1.076-1.006h-14.833l-1.076,1.006-.718,10.661-1.79-.448v-3.219h-2v4.781l3.653.913-.137,2.039-1.516,3.031v9.236h4.414l2-2h9.172l2,2h4.414v-9.236l-1.516-3.031-.137-2.039,3.653-.913v-4.781ZM9.445,4h13.109l.269,4h-13.648l.269-4ZM9.041,10h13.918l.269,4h-14.456l.269-4ZM14.586,16l1.414,1.414,1.414-1.414h2.388l-1.574,6h-4.457l-1.574-6h2.388ZM25,28h-1.586l-2-2h-10.828l-2,2h-1.586v-4.72l3.181.795-.579-2.206-2.594-.649,1.477-2.954.153-2.268h1.493l2.098,8h7.543l2.098-8h1.493l.153,2.268,1.477,2.954-2.594.649-.579,2.206,3.181-.795v4.72Z" fill="#fff" stroke-width="0"/></svg>