<?xml version="1.0" encoding="UTF-8"?>
<svg id="Artwork" xmlns="http://www.w3.org/2000/svg" version="1.1" viewBox="0 0 5090 422">
  <defs>
    <style>
      .cls-1 {
        fill: #fff;
        stroke-width: 0px;
      }
    </style>
  </defs>
  <g id="International_Wordmark" data-name="International Wordmark">
    <g id="Wordmark">
      <path class="cls-1" d="M0,11h77.71v400H0V11Z"/>
      <path class="cls-1" d="M179.99,11h81.71l211.43,211.43V11h77.71v400h-77.71v-81.14l-215.43-215.43v296.57h-77.71V11Z"/>
      <path class="cls-1" d="M766.85,84.14h-147.43V11h372.57v73.14h-147.43v326.86h-77.71V84.14Z"/>
      <path class="cls-1" d="M1060.57,11h313.14v73.14h-235.43v86.29h187.43v72h-187.43v95.43h242.28v73.14h-320V11Z"/>
      <path class="cls-1" d="M1465.71,11h230.28c76.57,0,132.57,53.71,132.57,125.71,0,54.86-32,98.86-81.14,116.57l87.43,157.71h-89.71l-81.14-148.57h-120.57v148.57h-77.71V11ZM1692.56,189.29c30.29,0,53.71-21.14,53.71-52.57s-23.43-52.57-53.71-52.57h-149.14v105.14h149.14Z"/>
      <path class="cls-1" d="M1918.27,11h81.71l211.43,211.43V11h77.71v400h-77.71v-81.14l-215.43-215.43v296.57h-77.71V11Z"/>
      <path class="cls-1" d="M2366.27,336.71L2531.98,11h80l165.71,325.71v74.29h-80v-52.57l-20.57-42.86h-210.29l-20.57,42.86v52.57h-80v-74.29ZM2642.27,242.43l-70.29-146.86-70.29,146.86h140.57Z"/>
      <path class="cls-1" d="M2911.98,84.14h-147.43V11h372.57v73.14h-147.43v326.86h-77.71V84.14Z"/>
      <path class="cls-1" d="M3205.7,11h77.71v400h-77.71V11Z"/>
      <path class="cls-1" d="M3358.84,208.14c0-125.14,99.43-206.28,209.71-206.28s209.71,81.14,209.71,206.28-99.43,212-209.71,212-209.71-86.86-209.71-212ZM3568.55,343.57c71.43,0,128-58.29,128-135.43s-56.57-129.71-128-129.71-128,52.57-128,129.71,56.57,135.43,128,135.43Z"/>
      <path class="cls-1" d="M3853.69,11h81.71l211.43,211.43V11h77.71v400h-77.71v-81.14l-215.43-215.43v296.57h-77.71V11Z"/>
      <path class="cls-1" d="M4301.69,336.71l165.71-325.71h80l165.71,325.71v74.29h-80v-52.57l-20.57-42.86h-210.29l-20.57,42.86v52.57h-80v-74.29ZM4577.69,242.43l-70.29-146.86-70.29,146.86h140.57Z"/>
      <path class="cls-1" d="M4790.26,11h77.71v326.86h220.57v73.14h-298.28V11Z"/>
    </g>
  </g>
  <g id="Registered_Mark" data-name="Registered Mark">
    <path class="cls-1" d="M5057.39,51.89c4.79-2.17,7.91-6.48,7.91-11.99,0-7.66-6.23-13.4-14.36-13.4h-22.98v41.67h8.37v-14.85h12.45l7.92,14.85h9.33l-8.62-16.28ZM5050.93,45.65h-14.62v-11.5h14.62c3.36,0,5.75,2.4,5.75,5.75s-2.4,5.75-5.75,5.75Z"/>
    <path class="cls-1" d="M5045.41,5.17c-23.7,0-42.87,19.17-42.87,42.88s18.93,43.12,42.87,43.12,43.13-19.4,43.13-43.12-19.4-42.88-43.13-42.88ZM5045.41,82.07c-18.68,0-33.53-15.34-33.53-34.03s14.62-34.01,33.53-34.01,33.79,15.09,33.79,34.01-14.84,34.03-33.79,34.03Z"/>
  </g>
</svg>