<?xml version="1.0" encoding="UTF-8"?>
<svg id="Artwork" xmlns="http://www.w3.org/2000/svg" version="1.1" viewBox="0 0 6130 630">
  <defs>
    <style>
      .cls-1 {
        fill: #000;
        stroke-width: 0px;
      }
    </style>
  </defs>
  <g id="International_Lock-Up" data-name="International Lock-Up">
    <g id="Wordmark">
      <path class="cls-1" d="M1040,110h77.7v400h-77.7V110Z"/>
      <path class="cls-1" d="M1220,110h81.7l211.4,211.4V110h77.7v400h-77.7v-81.1l-215.4-215.4v296.6h-77.7V110Z"/>
      <path class="cls-1" d="M1806.8,183.1h-147.4v-73.1h372.6v73.1h-147.4v326.9h-77.7V183.1Z"/>
      <path class="cls-1" d="M2100.6,110h313.1v73.1h-235.4v86.3h187.4v72h-187.4v95.4h242.3v73.1h-320V110Z"/>
      <path class="cls-1" d="M2505.7,110h230.3c76.6,0,132.6,53.7,132.6,125.7s-32,98.9-81.1,116.6l87.4,157.7h-89.7l-81.1-148.6h-120.6v148.6h-77.7V110ZM2732.6,288.3c30.3,0,53.7-21.1,53.7-52.6s-23.4-52.6-53.7-52.6h-149.1v105.1h149.1Z"/>
      <path class="cls-1" d="M2958.3,110h81.7l211.4,211.4V110h77.7v400h-77.7v-81.1l-215.4-215.4v296.6h-77.7V110Z"/>
      <path class="cls-1" d="M3406.3,435.7l165.7-325.7h80l165.7,325.7v74.3h-80v-52.6l-20.6-42.9h-210.3l-20.6,42.9v52.6h-80v-74.3ZM3682.3,341.4l-70.3-146.9-70.3,146.9h140.6Z"/>
      <path class="cls-1" d="M3952,183.1h-147.4v-73.1h372.6v73.1h-147.4v326.9h-77.7V183.1Z"/>
      <path class="cls-1" d="M4245.7,110h77.7v400h-77.7V110Z"/>
      <path class="cls-1" d="M4398.8,307.1c0-125.1,99.4-206.3,209.7-206.3s209.7,81.1,209.7,206.3-99.4,212-209.7,212-209.7-86.9-209.7-212ZM4608.6,442.6c71.4,0,128-58.3,128-135.4s-56.6-129.7-128-129.7-128,52.6-128,129.7,56.6,135.4,128,135.4Z"/>
      <path class="cls-1" d="M4893.7,110h81.7l211.4,211.4V110h77.7v400h-77.7v-81.1l-215.4-215.4v296.6h-77.7V110Z"/>
      <path class="cls-1" d="M5341.7,435.7l165.7-325.7h80l165.7,325.7v74.3h-80v-52.6l-20.6-42.9h-210.3l-20.6,42.9v52.6h-80v-74.3ZM5617.7,341.4l-70.3-146.9-70.3,146.9h140.6Z"/>
      <path class="cls-1" d="M5830.3,110h77.7v326.9h220.6v73.1h-298.3V110Z"/>
    </g>
    <g id="Symbol">
      <polygon class="cls-1" points="350 0 0 350 280 630 350 0"/>
      <polygon class="cls-1" points="370 0 720 350 440 630 370 0"/>
    </g>
  </g>
  <path class="cls-1" d="M6097.4,150.9c4.8-2.2,7.9-6.5,7.9-12s-6.2-13.4-14.4-13.4h-23v41.7h8.4v-14.8h12.5l7.9,14.8h9.3l-8.6-16.3ZM6090.9,144.7h-14.6v-11.5h14.6c3.4,0,5.8,2.4,5.8,5.8s-2.4,5.8-5.8,5.8Z"/>
  <path class="cls-1" d="M6085.4,104.2c-23.7,0-42.9,19.2-42.9,42.9s18.9,43.1,42.9,43.1,43.1-19.4,43.1-43.1-19.4-42.9-43.1-42.9ZM6085.4,181.1c-18.7,0-33.5-15.3-33.5-34s14.6-34,33.5-34,33.8,15.1,33.8,34-14.8,34-33.8,34Z"/>
</svg>