<?xml version="1.0" encoding="UTF-8"?><svg id="Outlined" xmlns="http://www.w3.org/2000/svg" width="32" height="32" viewBox="0 0 32 32"><path d="M24.8,6.419c-.351-.469-.685-.86-1.022-1.197-2.078-2.077-4.84-3.222-7.778-3.222s-5.701,1.145-7.779,3.222c-.337.338-.671.729-1.021,1.197-1.439,1.921-2.2,4.196-2.2,6.581,0,2.271.69,4.444,2,6.306l7.479,10.694h3.041l7.299-10.427.106-.163c1.358-1.884,2.074-4.096,2.074-6.41,0-2.385-.761-4.66-2.2-6.581ZM16,16c-1.657,0-3-1.343-3-3s1.343-3,3-3,3,1.343,3,3-1.343,3-3,3Z" stroke-width="0"/></svg>