<?xml version="1.0" encoding="UTF-8"?><svg id="Outlined" xmlns="http://www.w3.org/2000/svg" width="32" height="32" viewBox="0 0 32 32"><path d="M11.03,4.083c-1.277.06-2.149.265-2.911.563-.789.308-1.458.72-2.123,1.388-.666.668-1.075,1.338-1.38,2.128-.295.764-.496,1.636-.552,2.914-.056,1.28-.069,1.688-.063,4.947.006,3.258.021,3.667.082,4.948.061,1.276.265,2.148.563,2.911.308.789.72,1.457,1.388,2.123.668.666,1.338,1.074,2.128,1.38.763.295,1.636.496,2.913.552,1.28.056,1.689.069,4.946.063,3.259-.006,3.668-.021,4.948-.081,1.277-.061,2.148-.266,2.911-.563.789-.309,1.458-.72,2.123-1.388.665-.668,1.074-1.338,1.379-2.128.295-.763.496-1.636.552-2.913.056-1.281.069-1.69.063-4.948-.006-3.259-.021-3.667-.082-4.946-.061-1.278-.265-2.149-.563-2.912-.308-.789-.72-1.457-1.388-2.123-.668-.665-1.338-1.075-2.128-1.379-.764-.295-1.636-.497-2.913-.552-1.28-.057-1.689-.069-4.947-.063-3.258.006-3.667.02-4.947.082M11.17,25.776c-1.17-.051-1.805-.245-2.229-.408-.561-.217-.961-.477-1.382-.895-.42-.42-.681-.818-.9-1.378-.164-.423-.362-1.058-.417-2.228-.059-1.265-.073-1.644-.079-4.848-.006-3.203.005-3.583.061-4.849.05-1.169.246-1.805.408-2.228.217-.561.476-.961.895-1.382.42-.421.818-.681,1.378-.9.423-.165,1.058-.362,2.227-.417,1.266-.06,1.645-.073,4.848-.079,3.204-.006,3.584.005,4.85.061,1.169.051,1.805.245,2.228.408.561.217.961.476,1.382.895.421.42.682.818.9,1.379.165.422.362,1.057.417,2.226.06,1.266.074,1.645.08,4.848.006,3.204-.005,3.584-.061,4.849-.051,1.17-.245,1.806-.408,2.229-.217.56-.476.96-.895,1.381-.419.42-.818.681-1.378.9-.422.165-1.058.362-2.226.417-1.266.059-1.645.073-4.849.079-3.203.006-3.582-.006-4.848-.061M20.953,9.585c.002.795.648,1.438,1.442,1.437.795-.002,1.439-.647,1.437-1.442-.002-.795-.648-1.439-1.443-1.437s-1.439.648-1.437,1.442M9.839,16.012c.007,3.403,2.771,6.156,6.173,6.149,3.403-.007,6.157-2.77,6.15-6.173-.007-3.402-2.771-6.156-6.174-6.15-3.402.007-6.156,2.771-6.149,6.173M12,16.007c-.004-2.209,1.784-4.003,3.992-4.007,2.209-.004,4.003,1.783,4.008,3.992.004,2.209-1.783,4.003-3.993,4.007-2.208.004-4.003-1.783-4.007-3.992"/></svg>