<?xml version="1.0" encoding="UTF-8"?><svg id="Outlined" xmlns="http://www.w3.org/2000/svg" width="32" height="32" viewBox="0 0 32 32"><circle cx="16" cy="16" r="3" stroke-width="0"/><path d="M26.949,15c-.478-5.268-4.681-9.472-9.949-9.949v-3.051h-2v3.051c-5.268.478-9.472,4.681-9.949,9.949h-3.051v2h3.051c.478,5.268,4.681,9.472,9.949,9.949v3.051h2v-3.051c5.268-.478,9.472-4.681,9.949-9.949h3.051v-2h-3.051ZM17,24.941v-2.941h-2v2.941c-4.164-.463-7.478-3.776-7.941-7.941h2.941v-2h-2.941c.463-4.165,3.777-7.478,7.941-7.941v2.941h2v-2.941c4.164.463,7.478,3.776,7.941,7.941h-2.941v2h2.941c-.463,4.165-3.777,7.478-7.941,7.941Z" stroke-width="0"/></svg>