<?xml version="1.0" encoding="UTF-8"?><svg id="Outlined" xmlns="http://www.w3.org/2000/svg" width="32" height="32" viewBox="0 0 32 32"><rect x="15" y="3" width="2" height="12" stroke-width="0"/><path d="M21.068,6.133l-.847,1.812c3.51,1.641,5.779,5.194,5.779,9.055s-2.269,7.414-5.779,9.055c-2.684,1.254-5.759,1.254-8.442,0-3.51-1.641-5.779-5.194-5.779-9.055s2.269-7.414,5.779-9.055l-.847-1.812c-4.211,1.969-6.932,6.234-6.932,10.867s2.721,8.898,6.932,10.867c1.609.752,3.314,1.133,5.068,1.133s3.459-.381,5.068-1.133c4.211-1.969,6.932-6.234,6.932-10.867s-2.721-8.898-6.932-10.867Z" stroke-width="0"/></svg>