<?xml version="1.0" encoding="UTF-8"?><svg id="Outlined" xmlns="http://www.w3.org/2000/svg" width="32" height="32" viewBox="0 0 32 32"><path d="M22,22c-.753,0-1.469.217-2.093.603l-6.149-5.271c.15-.424.242-.869.242-1.332s-.092-.909-.242-1.332l6.149-5.271c.624.386,1.34.603,2.093.603,1.069,0,2.073-.417,2.828-1.171.756-.755,1.172-1.76,1.172-2.829s-.417-2.073-1.171-2.828c-.755-.756-1.76-1.172-2.829-1.172s-2.073.417-2.828,1.171c-.756.755-1.172,1.76-1.172,2.829,0,.696.193,1.357.525,1.947l-5.9,5.057c-.729-.64-1.645-1.005-2.625-1.005-1.069,0-2.073.417-2.828,1.171-.756.755-1.172,1.76-1.172,2.829s.417,2.073,1.171,2.828c.755.756,1.76,1.172,2.829,1.172.98,0,1.896-.365,2.625-1.005l5.9,5.057c-.332.59-.525,1.251-.525,1.947,0,1.069.417,2.073,1.171,2.828.755.756,1.76,1.172,2.829,1.172s2.073-.417,2.828-1.171c.756-.755,1.172-1.76,1.172-2.829s-.417-2.073-1.171-2.828c-.755-.756-1.76-1.172-2.829-1.172ZM20.586,4.585c.377-.377.879-.585,1.414-.585s1.036.208,1.415.586.585.879.585,1.414-.208,1.036-.586,1.415c-.755.755-2.071.756-2.828,0-.377-.377-.585-.879-.585-1.414s.208-1.036.586-1.415ZM11.414,17.415c-.755.755-2.071.756-2.828,0-.377-.377-.585-.879-.585-1.414s.208-1.036.586-1.415.879-.585,1.414-.585,1.036.208,1.415.586.585.879.585,1.414-.208,1.036-.586,1.415ZM23.414,27.415c-.755.755-2.071.756-2.828,0-.377-.377-.585-.879-.585-1.414s.208-1.036.586-1.415.879-.585,1.414-.585,1.036.208,1.415.586.585.879.585,1.414-.208,1.036-.586,1.415Z" stroke-width="0"/></svg>