<?xml version="1.0" encoding="UTF-8"?><svg id="Outlined" xmlns="http://www.w3.org/2000/svg" width="32" height="32" viewBox="0 0 32 32"><polygon points="5.758 22 7.758 20 4 20 4 12 9.414 12 17.414 4 18 4 18 9.758 20 7.758 20 2 16.586 2 8.586 10 4 10 2 12 2 20 4 22 5.758 22" stroke-width="0"/><path d="M28.586,2L2,28.586l1.414,1.414,6.586-6.586,6.586,6.586h3.414V13.414L30,3.414l-1.414-1.414ZM20,13.414L29.707,3.707M20,13.414L29.707,3.707M18,28h-.586l-6-6,6.586-6.586v12.586Z" stroke-width="0"/></svg>