<?xml version="1.0" encoding="UTF-8"?><svg id="Outlined" xmlns="http://www.w3.org/2000/svg" width="32" height="32" viewBox="0 0 32 32"><path d="M29.415,9.26c-.322-1.205-1.271-2.154-2.475-2.475-2.184-.585-10.939-.585-10.939-.585,0,0-8.756,0-10.939.585-1.205.322-2.154,1.271-2.476,2.475-.585,2.184-.585,6.74-.585,6.74,0,0,0,4.556.585,6.74.322,1.205,1.271,2.153,2.476,2.475,2.184.585,10.939.585,10.939.585,0,0,8.756,0,10.939-.585,1.205-.322,2.153-1.271,2.475-2.475.585-2.184.585-6.74.585-6.74,0,0,0-4.556-.585-6.74ZM13.2,20.2v-8.4l7.274,4.2-7.274,4.2Z" stroke-width="0"/></svg>