<?xml version="1.0" encoding="UTF-8"?><svg id="Outlined" xmlns="http://www.w3.org/2000/svg" width="32" height="32" viewBox="0 0 32 32"><polygon points="21 23 15 17 15 7 17 7 17 16.172 22.414 21.586 21 23" stroke-width="0"/><path d="M16,30c-3.587,0-7.174-1.365-9.904-4.096C.635,20.443.635,11.557,6.096,6.096,11.556.635,20.444.635,25.904,6.096c5.461,5.461,5.461,14.347,0,19.808-2.73,2.731-6.317,4.096-9.904,4.096ZM16,4c-3.074,0-6.149,1.17-8.489,3.51-4.681,4.681-4.681,12.298,0,16.979,4.681,4.681,12.298,4.681,16.979,0,4.681-4.681,4.681-12.298,0-16.979-2.34-2.34-5.415-3.51-8.489-3.51Z" stroke-width="0"/></svg>