<?xml version="1.0" encoding="UTF-8"?><svg id="Outlined" xmlns="http://www.w3.org/2000/svg" width="32" height="32" viewBox="0 0 32 32"><path d="M26,12h-11.26c-.239-.344-.503-.663-.791-.95-1.322-1.322-3.08-2.05-4.95-2.05s-3.627.728-4.95,2.05-2.05,3.08-2.05,4.95.728,3.627,2.05,4.95,3.08,2.05,4.95,2.05,3.627-.728,4.95-2.05c.288-.287.552-.605.791-.95h1.674l1.586-1.586,1.586,1.586h2.828l.586-.586.586.586h2.414l4-4-4-4ZM25.172,18h-.758l-1.414-1.414-1.414,1.414h-1.172l-2.414-2.414-2.414,2.414h-1.971l-.289.499c-.226.39-.492.738-.79,1.037-.944.944-2.2,1.464-3.536,1.464s-2.591-.52-3.536-1.464-1.464-2.2-1.464-3.536.52-2.591,1.464-3.536,2.2-1.464,3.536-1.464,2.591.52,3.536,1.464c.298.299.564.647.79,1.037l.289.499h11.557l2,2-2,2Z" stroke-width="0"/><circle cx="8" cy="16" r="2" stroke-width="0"/></svg>