<?xml version="1.0" encoding="UTF-8"?><svg id="Outlined" xmlns="http://www.w3.org/2000/svg" width="32" height="32" viewBox="0 0 32 32"><path d="M28.9,15.692c-1.902-5.888-6.936-9.692-12.9-9.692S5.002,9.805,3.1,15.692l-.1.308.1.308c1.902,5.888,6.936,9.692,12.9,9.692s10.998-3.805,12.9-9.692l.1-.308-.1-.308ZM16,24c-4.977,0-9.188-3.129-10.895-8,1.706-4.871,5.918-8,10.895-8s9.188,3.129,10.895,8c-1.706,4.871-5.918,8-10.895,8Z" stroke-width="0"/><path d="M16,10c-3.309,0-6,2.691-6,6s2.691,6,6,6,6-2.691,6-6-2.691-6-6-6ZM16,20c-2.206,0-4-1.794-4-4s1.794-4,4-4,4,1.794,4,4-1.794,4-4,4Z" stroke-width="0"/></svg>