<?xml version="1.0" encoding="UTF-8"?><svg id="Outlined" xmlns="http://www.w3.org/2000/svg" width="32" height="32" viewBox="0 0 32 32"><path d="M23.858,6c-.447-1.72-1.999-3-3.858-3s-3.411,1.28-3.858,3H4v2h12.142c.447,1.72,1.999,3,3.858,3s3.411-1.28,3.858-3h4.142v-2h-4.142ZM22,7c0,.366-.106.705-.278,1-.347.595-.985,1-1.722,1s-1.375-.405-1.722-1c-.172-.295-.278-.634-.278-1s.106-.705.278-1c.347-.595.985-1,1.722-1s1.375.405,1.722,1c.172.295.278.634.278,1Z" stroke-width="0"/><path d="M12,11c-1.859,0-3.411,1.28-3.858,3h-4.142v2h4.142c.447,1.72,1.999,3,3.858,3s3.411-1.28,3.858-3h12.142v-2h-12.142c-.447-1.72-1.999-3-3.858-3ZM14,15c0,.366-.106.705-.278,1-.347.595-.985,1-1.722,1s-1.375-.405-1.722-1c-.172-.295-.278-.634-.278-1s.106-.705.278-1c.347-.595.985-1,1.722-1s1.375.405,1.722,1c.172.295.278.634.278,1Z" stroke-width="0"/><path d="M20,19c-1.859,0-3.411,1.28-3.858,3H4v2h12.142c.447,1.72,1.999,3,3.858,3s3.411-1.28,3.858-3h4.142v-2h-4.142c-.447-1.72-1.999-3-3.858-3ZM22,23c0,.366-.106.705-.278,1-.347.595-.985,1-1.722,1s-1.375-.405-1.722-1c-.172-.295-.278-.634-.278-1s.106-.705.278-1c.347-.595.985-1,1.722-1s1.375.405,1.722,1c.172.295.278.634.278,1Z" stroke-width="0"/></svg>