<?xml version="1.0" encoding="UTF-8"?><svg id="Outlined" xmlns="http://www.w3.org/2000/svg" width="32" height="32" viewBox="0 0 32 32"><path d="M28,2H8l-2,2v3H2v2h4v6H2v2h4v6H2v2h4v3l2,2h20l2-2V4l-2-2ZM28,28H8V4h20v24Z" stroke-width="0"/><polygon points="12 20 24 20 24 24 26 24 26 20 24 18 12 18 10 20 10 24 12 24 12 20" stroke-width="0"/><path d="M18,17c2.757,0,5-2.243,5-5s-2.243-5-5-5-5,2.243-5,5,2.243,5,5,5ZM18,9c1.654,0,3,1.346,3,3s-1.346,3-3,3-3-1.346-3-3,1.346-3,3-3Z" stroke-width="0"/></svg>