<?xml version="1.0" encoding="UTF-8"?><svg id="Outlined" xmlns="http://www.w3.org/2000/svg" width="32" height="32" viewBox="0 0 32 32"><path d="M20,28H4V4h8v8h10v-2.414l-7.586-7.586H4l-2,2v24l2,2h16l2-2v-4h-2v4ZM19.586,10h-5.586v-5.586l5.586,5.586Z" stroke-width="0"/><path d="M9.673,15.004v6.996h2.659c1.919,0,3.238-1.35,3.238-3.498s-1.319-3.498-3.238-3.498h-2.659ZM14.111,18.502c0,1.27-.71,2.219-1.829,2.219h-1.21v-4.438h1.21c1.119,0,1.829.949,1.829,2.219Z" stroke-width="0"/><path d="M19.712,14.884c-1.949,0-3.278,1.399-3.278,3.618s1.329,3.618,3.278,3.618,3.278-1.399,3.278-3.618-1.329-3.618-3.278-3.618ZM19.712,20.82c-1.119,0-1.819-.89-1.819-2.318s.7-2.318,1.819-2.318,1.819.889,1.819,2.318-.7,2.318-1.819,2.318Z" stroke-width="0"/><path d="M27.132,20.82c-1.119,0-1.819-.89-1.819-2.318s.7-2.318,1.819-2.318c.77,0,1.259.489,1.509,1.119l1.359-.479c-.439-1.21-1.549-1.939-2.868-1.939-1.949,0-3.278,1.39-3.278,3.618s1.329,3.618,3.278,3.618c1.319,0,2.429-.729,2.868-1.939l-1.359-.479c-.25.63-.709,1.119-1.509,1.119Z" stroke-width="0"/></svg>