<?xml version="1.0" encoding="UTF-8"?><svg id="Outlined" xmlns="http://www.w3.org/2000/svg" width="32" height="32" viewBox="0 0 32 32"><path d="M28,10.714h-3v-5.786l-2-1.929h-14l-2,1.929v5.786h-3l-2,1.929v6.75l2,1.929h5V4.929h14v20.25h-3.142c-.447-1.659-2-2.893-3.858-2.893-2.206,0-4,1.73-4,3.857s1.794,3.857,4,3.857c1.858,0,3.411-1.234,3.858-2.893h3.142l2-1.929v-3.857h3l2-1.929v-6.75l-2-1.929ZM4,12.643h3v6.75h-3v-6.75ZM16,28.071c-1.103,0-2-.865-2-1.929s.897-1.929,2-1.929,2,.865,2,1.929-.897,1.929-2,1.929ZM28,19.393h-3v-6.75h3v6.75Z" stroke-width="0"/></svg>