<?xml version="1.0" encoding="UTF-8"?><svg id="Outlined" xmlns="http://www.w3.org/2000/svg" width="32" height="32" viewBox="0 0 32 32"><path d="M6.139,21.619l1.419-1.419c-1.047-1.179-1.889-2.592-2.452-4.2,1.706-4.871,5.918-8,10.895-8,1.14,0,2.236.172,3.275.483l1.574-1.574c-1.506-.586-3.137-.909-4.849-.909-5.965,0-10.998,3.805-12.9,9.692l-.1.308.1.308c.662,2.05,1.711,3.839,3.039,5.311Z" stroke-width="0"/><path d="M10,16c0,.536.077,1.053.21,1.548l1.817-1.817c.135-1.988,1.716-3.568,3.703-3.703l1.817-1.817c-.495-.132-1.012-.21-1.548-.21-3.309,0-6,2.691-6,6Z" stroke-width="0"/><path d="M30,3.414l-1.414-1.414L2,28.586l1.414,1.414,5.833-5.833c1.99,1.176,4.29,1.833,6.752,1.833,5.965,0,10.998-3.805,12.9-9.692l.1-.308-.1-.308c-.887-2.745-2.46-5.029-4.485-6.693l5.585-5.585ZM19.433,13.981c.351.595.567,1.28.567,2.019,0,2.206-1.794,4-4,4-.74,0-1.424-.215-2.019-.567l5.453-5.453ZM26.895,16c-1.706,4.871-5.918,8-10.895,8-1.906,0-3.699-.463-5.283-1.303l1.812-1.812c.981.699,2.177,1.115,3.471,1.115,3.309,0,6-2.691,6-6,0-1.294-.416-2.49-1.115-3.471l2.104-2.104c1.735,1.377,3.101,3.279,3.906,5.575Z" stroke-width="0"/></svg>