<?xml version="1.0" encoding="UTF-8"?><svg id="Outlined" xmlns="http://www.w3.org/2000/svg" width="32" height="32" viewBox="0 0 32 32"><path d="M26,10.657l-10-5.657-10,5.657v10.687l10,5.657,10-5.657v-10.687ZM16,7.298l6.941,3.926-6.941,3.786-6.941-3.786,6.941-3.926ZM8,20.177v-7.253l7,3.669v7.543s-7-3.959-7-3.959ZM24,20.177l-7,3.959v-7.543s7-3.67,7-3.67v7.253Z" stroke-width="0"/><polygon points="4 23 2 23 2 28 4 30 8 30 8 28 4 28 4 23" stroke-width="0"/><polygon points="28 28 24 28 24 30 28 30 30 28 30 24 28 24 28 28" stroke-width="0"/><polygon points="28 2 24 2 24 4 28 4 28 8 30 8 30 4 28 2" stroke-width="0"/><polygon points="4 4 8 4 8 2 4 2 2 4 2 8 4 8 4 4" stroke-width="0"/></svg>